<?xml version="1.0" standalone="no"?>
<!DOCTYPE svg PUBLIC "-//W3C//DTD SVG 20010904//EN"
 "http://www.w3.org/TR/2001/REC-SVG-20010904/DTD/svg10.dtd">
<svg version="1.0" xmlns="http://www.w3.org/2000/svg"
 width="225.000000pt" height="225.000000pt" viewBox="0 0 225.000000 225.000000"
 preserveAspectRatio="xMidYMid meet">

<g transform="translate(0.000000,225.000000) scale(0.100000,-0.100000)"
fill="#000000" stroke="none">
<path d="M713 2240 c-55 -22 -51 -92 7 -105 l30 -7 -2 -195 -3 -196 -50 -16
c-99 -33 -170 -95 -216 -187 l-24 -49 -3 -521 c-2 -506 -2 -524 18 -577 26
-69 88 -140 157 -179 l53 -30 0 -89 0 -89 445 0 445 0 0 89 0 90 55 31 c69 40
129 107 155 176 19 52 20 76 20 564 0 488 -1 512 -20 564 -36 96 -129 180
-233 211 l-42 12 -3 196 -2 195 30 7 c67 15 58 95 -11 109 -48 9 -781 6 -806
-4z m732 -305 l0 -130 -237 -3 -238 -2 0 135 0 135 238 -2 237 -3 0 -130z m76
-280 c72 -25 138 -97 177 -194 21 -52 22 -65 22 -517 0 -450 -1 -466 -21 -509
-11 -24 -40 -62 -64 -84 -44 -41 -145 -98 -145 -83 0 5 -13 83 -29 173 -16 90
-44 249 -61 352 -34 204 -57 291 -101 380 -76 154 -167 248 -297 309 -45 21
-85 45 -88 53 -11 27 6 65 43 100 l37 35 241 0 c189 0 251 -3 286 -15z m-78
-1510 c-15 -40 -52 -45 -318 -45 -224 0 -261 2 -286 17 -69 41 -56 43 286 43
288 0 324 -2 318 -15z"/>
</g>
</svg>
